<svg xmlns="http://www.w3.org/2000/svg" viewBox="0 0 64 64" role="img" aria-label="PG Optimizer">
  <defs>
    <linearGradient id="g" x1="0%" y1="0%" x2="100%" y2="100%">
      <stop offset="0%" stop-color="#1d4ed8"/>
      <stop offset="100%" stop-color="#22d3ee"/>
    </linearGradient>
  </defs>
  <rect width="64" height="64" rx="12" fill="#0f172a"/>
  <rect x="6" y="6" width="52" height="52" rx="10" fill="url(#g)" opacity="0.18"/>
  <path d="M20 42c1.6 2.5 5.4 6 12 6s10.4-3.5 12-6" fill="none" stroke="#e2e8f0" stroke-width="3" stroke-linecap="round"/>
  <path d="M22 30c0-6 4.5-11 10-11s10 5 10 11-4.5 11-10 11-10-5-10-11z" fill="#e2e8f0" opacity="0.9"/>
  <path d="M30 24h8m-8 6h5" stroke="#0f172a" stroke-width="3" stroke-linecap="round" stroke-linejoin="round"/>
  <circle cx="28" cy="30" r="2" fill="#0f172a"/>
  <path d="M18 36c-3 0-5-2.2-5-5s2.2-5 5-5h2" fill="none" stroke="#e2e8f0" stroke-width="3" stroke-linecap="round"/>
  <path d="M46 36c3 0 5-2.2 5-5s-2.2-5-5-5h-2" fill="none" stroke="#e2e8f0" stroke-width="3" stroke-linecap="round"/>
  <path d="M23 48c-2 1-5 2.5-6 4.5" fill="none" stroke="#22d3ee" stroke-width="3" stroke-linecap="round"/>
  <path d="M41 48c2 1 5 2.5 6 4.5" fill="none" stroke="#22d3ee" stroke-width="3" stroke-linecap="round"/>
</svg>


